<?xml version="1.0" encoding="UTF-8" standalone="no"?>
<!-- Created with Inkscape (http://www.inkscape.org/) -->

<svg
   width="83.149269"
   height="168.15285"
   viewBox="0 0 21.99991 44.49044"
   version="1.1"
   id="svg1"
   inkscape:version="1.3 (0e150ed6c4, 2023-07-21)"
   sodipodi:docname="mana.svg"
   xmlns:inkscape="http://www.inkscape.org/namespaces/inkscape"
   xmlns:sodipodi="http://sodipodi.sourceforge.net/DTD/sodipodi-0.dtd"
   xmlns="http://www.w3.org/2000/svg"
   xmlns:svg="http://www.w3.org/2000/svg">
  <sodipodi:namedview
     id="namedview1"
     pagecolor="#ffffff"
     bordercolor="#000000"
     borderopacity="0.25"
     inkscape:showpageshadow="2"
     inkscape:pageopacity="0.0"
     inkscape:pagecheckerboard="0"
     inkscape:deskcolor="#d1d1d1"
     inkscape:document-units="mm"
     showgrid="true"
     inkscape:zoom="2.4174213"
     inkscape:cx="-25.2335"
     inkscape:cy="33.71361"
     inkscape:window-width="1920"
     inkscape:window-height="1001"
     inkscape:window-x="-9"
     inkscape:window-y="-9"
     inkscape:window-maximized="1"
     inkscape:current-layer="layer1">
    <inkscape:grid
       id="grid1"
       units="mm"
       originx="-525.35432"
       originy="-311.84692"
       spacingx="0.99999998"
       spacingy="1"
       empcolor="#0099e5"
       empopacity="0.30196078"
       color="#0099e5"
       opacity="0.14901961"
       empspacing="5"
       dotted="false"
       gridanglex="30"
       gridanglez="30"
       visible="true" />
  </sodipodi:namedview>
  <defs
     id="defs1" />
  <g
     inkscape:label="Sloj 1"
     inkscape:groupmode="layer"
     id="layer1"
     transform="translate(-139,-82.509499)">
    <path
       id="path1-1"
       style="fill:#000000;stroke:#000000;stroke-width:2;stroke-linecap:round;stroke-linejoin:round;stroke-dasharray:none;paint-order:fill markers stroke;stroke-opacity:1;fill-opacity:1"
       d="M 149.99991,87.011623 C 146.62562,96.666337 140.12137,105.70444 140,116.00003 a 10,10 0 0 0 9.99991,9.99991 10,10 0 0 0 9.9999,-9.99991 10,10 0 0 0 -1.3627,-5.03483 c -1.27204,-2.42382 -3.66808,-6.39165 -8.6372,-23.953577 z" />
    <path
       id="path1"
       style="fill:#0099db;stroke:#000000;stroke-width:2;stroke-linecap:round;stroke-linejoin:round;stroke-dasharray:none;paint-order:fill markers stroke;stroke-opacity:1"
       d="m 150.00001,83.509267 c -3.37429,9.654714 -9.87854,18.692813 -9.99991,28.988403 a 10,10 0 0 0 9.99991,9.99991 10,10 0 0 0 9.9999,-9.99991 10,10 0 0 0 -1.3627,-5.03483 c -1.27204,-2.42382 -3.66808,-6.39165 -8.6372,-23.953573 z" />
  </g>
</svg>
